<?xml version="1.0" standalone="no"?>
<!DOCTYPE svg PUBLIC "-//W3C//DTD SVG 20010904//EN"
 "http://www.w3.org/TR/2001/REC-SVG-20010904/DTD/svg10.dtd">
<svg version="1.0" xmlns="http://www.w3.org/2000/svg"
 width="256.000000pt" height="256.000000pt" viewBox="0 0 256.000000 256.000000"
 preserveAspectRatio="xMidYMid meet">

<g transform="translate(0.000000,256.000000) scale(0.100000,-0.100000)"
fill="#000000" stroke="none">
<path d="M1108 2355 c-164 -27 -351 -106 -480 -204 -80 -61 -202 -189 -251
-264 -273 -412 -240 -943 80 -1318 142 -167 335 -286 562 -346 85 -23 115 -26
261 -26 146 0 176 3 261 26 399 106 690 397 796 796 23 85 26 115 26 261 0
146 -3 176 -26 261 -106 401 -401 695 -795 795 -124 32 -309 40 -434 19z m587
-640 c70 -34 131 -88 165 -149 34 -59 39 -96 13 -96 -10 0 -58 -5 -106 -10
-104 -11 -128 -4 -159 45 -13 19 -41 44 -63 55 -40 19 -41 19 -299 -4 -291
-27 -294 -28 -334 -109 -12 -25 -31 -51 -41 -57 -29 -15 -222 -33 -233 -22
-26 26 43 172 110 233 84 78 114 86 458 119 343 32 414 31 489 -5z m-166 -304
c14 -4 39 -26 56 -50 55 -79 70 -85 213 -91 l127 -5 -2 -51 c-5 -122 -83 -238
-200 -296 -64 -31 -69 -32 -242 -39 -200 -7 -230 -15 -325 -83 -78 -56 -119
-76 -151 -76 -24 0 -25 2 -23 64 1 40 -3 71 -11 80 -7 8 -38 22 -69 31 -107
30 -196 109 -238 212 -18 41 -34 131 -27 149 3 8 46 13 126 16 142 4 166 14
212 86 17 27 41 49 55 53 33 9 468 9 499 0z"/>
</g>
</svg>
